<?xml version="1.0" encoding="UTF-8"?>
<svg xmlns="http://www.w3.org/2000/svg" width="1200" height="520" viewBox="0 0 1200 520">
  <defs>
    <linearGradient id="bg" x1="0%" y1="0%" x2="100%" y2="100%">
      <stop offset="0%" style="stop-color:#0f172a"/>
      <stop offset="100%" style="stop-color:#1e293b"/>
    </linearGradient>
    <marker id="arrow" markerWidth="10" markerHeight="10" refX="9" refY="3" orient="auto">
      <path d="M0,0 L9,3 L0,6 Z" fill="#38bdf8"/>
    </marker>
  </defs>
  <rect width="1200" height="520" fill="url(#bg)" rx="16"/>
  <text x="600" y="42" text-anchor="middle" fill="#f8fafc" font-family="Arial" font-size="22" font-weight="bold">StyleCap Pipeline Architecture</text>
  <text x="600" y="68" text-anchor="middle" fill="#94a3b8" font-family="Arial" font-size="13">Two-phase anti-hallucination - parallel per-clip workers</text>

  <rect x="40" y="110" width="150" height="70" rx="10" fill="#1e3a8a" stroke="#3b82f6" stroke-width="2"/>
  <text x="115" y="140" text-anchor="middle" fill="#dbeafe" font-family="Arial" font-size="13" font-weight="bold">tasks.json</text>
  <text x="115" y="162" text-anchor="middle" fill="#93c5fd" font-family="Arial" font-size="11">video_url + styles</text>

  <line x1="190" y1="145" x2="230" y2="145" stroke="#38bdf8" stroke-width="2" marker-end="url(#arrow)"/>

  <rect x="230" y="110" width="150" height="70" rx="10" fill="#1e3a8a" stroke="#3b82f6" stroke-width="2"/>
  <text x="305" y="140" text-anchor="middle" fill="#dbeafe" font-family="Arial" font-size="13" font-weight="bold">Download</text>
  <text x="305" y="162" text-anchor="middle" fill="#93c5fd" font-family="Arial" font-size="11">6 parallel workers</text>

  <line x1="380" y1="145" x2="420" y2="145" stroke="#38bdf8" stroke-width="2" marker-end="url(#arrow)"/>

  <rect x="420" y="110" width="150" height="70" rx="10" fill="#14532d" stroke="#22c55e" stroke-width="2"/>
  <text x="495" y="140" text-anchor="middle" fill="#dcfce7" font-family="Arial" font-size="13" font-weight="bold">ffmpeg</text>
  <text x="495" y="162" text-anchor="middle" fill="#86efac" font-family="Arial" font-size="11">6 frames @ 768px</text>

  <line x1="570" y1="145" x2="610" y2="145" stroke="#38bdf8" stroke-width="2" marker-end="url(#arrow)"/>

  <rect x="610" y="95" width="180" height="90" rx="10" fill="#7c2d12" stroke="#f97316" stroke-width="2"/>
  <text x="700" y="125" text-anchor="middle" fill="#ffedd5" font-family="Arial" font-size="13" font-weight="bold">GROUND (Vision)</text>
  <text x="700" y="147" text-anchor="middle" fill="#fdba74" font-family="Arial" font-size="11">Kimi K2.6 / Gemma-3-12B</text>
  <text x="700" y="167" text-anchor="middle" fill="#fdba74" font-family="Arial" font-size="11">JSON fact sheet</text>

  <line x1="790" y1="140" x2="830" y2="140" stroke="#38bdf8" stroke-width="2" marker-end="url(#arrow)"/>

  <rect x="830" y="95" width="160" height="90" rx="10" fill="#581c87" stroke="#a855f7" stroke-width="2"/>
  <text x="910" y="125" text-anchor="middle" fill="#f3e8ff" font-family="Arial" font-size="13" font-weight="bold">WRITE (Text)</text>
  <text x="910" y="147" text-anchor="middle" fill="#d8b4fe" font-family="Arial" font-size="11">GLM 5.2 batch</text>
  <text x="910" y="167" text-anchor="middle" fill="#d8b4fe" font-family="Arial" font-size="11">2 candidates x 4 styles</text>

  <line x1="990" y1="140" x2="1030" y2="140" stroke="#38bdf8" stroke-width="2" marker-end="url(#arrow)"/>

  <rect x="1030" y="110" width="130" height="70" rx="10" fill="#581c87" stroke="#a855f7" stroke-width="2"/>
  <text x="1095" y="140" text-anchor="middle" fill="#f3e8ff" font-family="Arial" font-size="13" font-weight="bold">JUDGE</text>
  <text x="1095" y="162" text-anchor="middle" fill="#d8b4fe" font-family="Arial" font-size="11">batched pick</text>

  <rect x="40" y="230" width="1120" height="80" rx="12" fill="#1e293b" stroke="#475569" stroke-width="1.5"/>
  <text x="600" y="258" text-anchor="middle" fill="#f1f5f9" font-family="Arial" font-size="14" font-weight="bold">Graceful Degradation Ladder</text>
  <text x="600" y="285" text-anchor="middle" fill="#94a3b8" font-family="Arial" font-size="12">full pipeline - write-only - direct vision - schema repair - always valid results.json</text>

  <line x1="1095" y1="180" x2="1095" y2="330" stroke="#38bdf8" stroke-width="2"/>
  <line x1="1095" y1="330" x2="600" y2="330" stroke="#38bdf8" stroke-width="2"/>
  <line x1="600" y1="330" x2="600" y2="360" stroke="#38bdf8" stroke-width="2" marker-end="url(#arrow)"/>

  <rect x="480" y="360" width="240" height="70" rx="10" fill="#1e3a8a" stroke="#3b82f6" stroke-width="2"/>
  <text x="600" y="390" text-anchor="middle" fill="#dbeafe" font-family="Arial" font-size="14" font-weight="bold">results.json</text>
  <text x="600" y="412" text-anchor="middle" fill="#93c5fd" font-family="Arial" font-size="11">4 styles per clip, valid JSON</text>

  <rect x="40" y="450" width="540" height="55" rx="10" fill="#0c4a6e" stroke="#0ea5e9" stroke-width="1.5"/>
  <text x="310" y="472" text-anchor="middle" fill="#7dd3fc" font-family="Arial" font-size="12" font-weight="bold">GRADED PATH (Docker / Leaderboard)</text>
  <text x="310" y="492" text-anchor="middle" fill="#bae6fd" font-family="Arial" font-size="11">Kimi K2.6 + GLM 5.2 on Fireworks, key baked in</text>

  <rect x="620" y="450" width="540" height="55" rx="10" fill="#431407" stroke="#f97316" stroke-width="1.5"/>
  <text x="890" y="472" text-anchor="middle" fill="#fdba74" font-family="Arial" font-size="12" font-weight="bold">GEMMA PATH (AMD MI300X / Partner Prize)</text>
  <text x="890" y="492" text-anchor="middle" fill="#fed7aa" font-family="Arial" font-size="11">google/gemma-3-12b-it via vLLM + ROCm, 86s for 8 clips</text>
</svg>
